<?xml version="1.0" standalone="no"?>
<!DOCTYPE svg PUBLIC "-//W3C//DTD SVG 1.1//EN" "http://www.w3.org/Graphics/SVG/1.1/DTD/svg11.dtd" >
<svg xmlns="http://www.w3.org/2000/svg">
<metadata>Generated by IcoMoon</metadata>
<defs>
<font id="xicons" horiz-adv-x="1024">
<font-face units-per-em="1024" ascent="960" descent="-64" />
<missing-glyph horiz-adv-x="1024" />
<glyph unicode="&#x20;" horiz-adv-x="512" d="" />
<glyph unicode="&#xe900;" glyph-name="messages" horiz-adv-x="1097" d="M109.753 960h877.3c60.288-0.805 108.948-49.465 109.752-109.676l0.001-0.077v-603.37c-0.855-60.249-49.496-108.858-109.677-109.662l-0.076-0.001h-521.871l-177.398-195.237c-3.339-3.833-8.228-6.242-13.679-6.242-10.002 0-18.111 8.109-18.111 18.111 0 0.157 0.002 0.313 0.006 0.469v-0.023 182.922h-146.247c-60.257 0.804-108.898 49.413-109.752 109.581l-0.001 0.081v603.37c0.805 60.288 49.465 108.948 109.676 109.752l0.077 0.001z" />
<glyph unicode="&#xe901;" glyph-name="anchor" horiz-adv-x="935" d="M925.598 357.559c-8.885 9.996-21.102 14.438-34.43 14.438h-143.493c-24.656 0-44.425-19.991-44.425-44.425 0-24.656 19.991-44.425 44.425-44.425v0h86.851c-44.425-144.604-170.37-247.004-321.638-264.996v591.077c75.523 20.88 127.944 89.739 127.944 168.149 0 95.736-76.856 173.702-172.592 173.702s-172.592-77.966-172.592-173.702c0-80.187 49.978-147.936 127.944-168.149v-591.077c-155.932 17.77-277.213 120.17-321.638 264.996h86.851c24.656 0 44.425 19.991 44.425 44.425 0 24.656-19.991 44.425-44.425 44.425v0h-143.493c-13.328 0-25.544-4.443-34.43-14.438-8.663-9.551-12.439-22.879-9.996-35.54 43.315-257.888 287.431-431.813 545.319-388.72 199.247 33.319 355.179 189.473 388.72 388.72 1.999 12.661-1.333 25.544-9.329 35.54zM384.722 777.155c0 46.646 37.761 84.63 83.519 84.63 46.646 0 83.519-37.761 83.519-84.63s-37.761-84.63-83.519-84.63c-46.869 0-83.519 37.984-83.519 84.63z" />
<glyph unicode="&#xe902;" glyph-name="client-pre" horiz-adv-x="956" d="M716.8 319.457c0 9.4-7.6 17-17 17h-102.4c-9.4 0-17-7.6-17-17s7.6-17 17-17h102.4c9.4-0.2 17 7.6 17 17zM648.6 763.057v85.4c0 9.4-7.6 17-17 17s-17-7.6-17-17v-85.4c0-47 38.2-85.4 85.4-85.4h153.6v-324.2c0-9.4 7.6-17 17-17s17 7.6 17 17v341.4c0 9.4-7.6 17-17 17h-170.6c-28.4 0-51.4 23-51.4 51.2zM699.8 541.257h-136.6c-9.4 0-17-7.6-17-17s7.6-17 17-17h136.6c9.4 0 17 7.6 17 17s-7.6 17-17 17zM512 524.257c0 9.4-7.6 17-17 17h-102.4c-9.4 0-17-7.6-17-17s7.6-17 17-17h102.4c9.4-0.2 17 7.6 17 17zM392.6 438.857c-9.4 0-17-7.6-17-17s7.6-17 17-17h34.2c9.4 0 17 7.6 17 17s-7.6 17-17 17h-34.2zM392.6 609.457h170.6c9.4 0 17 7.6 17 17s-7.6 17-17 17h-170.6c-9.4 0-17-7.6-17-17-0.2-9.2 7.6-17 17-17zM495 404.657h170.6c9.4 0 17 7.6 17 17s-7.6 17-17 17h-170.6c-9.4 0-17-7.6-17-17s7.6-17 17-17zM597.4 234.057c-9.4 0-17-7.6-17-17s7.6-17 17-17h34.2c9.4 0 17 7.6 17 17s-7.6 17-17 17h-34.2zM529 336.457h-136.6c-9.4 0-17-7.6-17-17s7.6-17 17-17h136.6c9.4 0 17 7.6 17 17s-7.6 17-17 17zM529 234.057h-136.6c-9.4 0-17-7.6-17-17s7.6-17 17-17h136.6c9.4 0 17 7.6 17 17s-7.6 17-17 17zM935.4 247.857l-34.2 34.2c-26.2 26.2-66.2 26.2-92.4 0l-223.6-223.6c-3.2-3.2-5-7.6-5-12v-102.4c0-9.4 7.6-17 17-17h102.4c4.6 0 8.8 1.8 12 5l223.6 223.6c27.4 27 27.4 65 0.2 92.2zM786.8 211.657l27-27-148.2-148.2-27 27 148.2 148.2zM614.4-38.943v78.2l78.2-78.2h-78.2zM716.8-14.943l-27 27 148.2 148.2 27-27-148.2-148.2zM911.2 179.657l-22-22-78.2 78.2 22 22c13.4 13.4 30.6 13.6 44.2 0l34.2-34.2c13.6-13.8 13.6-30.2-0.2-44zM529-38.943h-443.6c-28.2 0-51.2 23-51.2 51.2v853.2c0 28.2 23 51.2 51.2 51.2h539l165.6-165.6c6.6-6.6 17.4-6.6 24.2 0 6.6 6.6 6.6 17.4 0 24.2l-170.6 170.6c-3.2 3.2-7.6 5-12 5h-546.2c-47.2 0-85.4-38.2-85.4-85.4v-853.4c0-47 38.2-85.2 85.4-85.2h443.8c9.4 0 17 7.6 17 17s-7.8 17.2-17.2 17.2zM529 131.657h-136.6c-9.4 0-17-7.6-17-17s7.6-17 17-17h136.6c9.4 0 17 7.6 17 17s-7.6 17-17 17zM307.2 626.657c0 9.4-7.6 17-17 17h-102.4c-9.4 0-17-7.6-17-17v-102.4c0-9.4 7.6-17 17-17h102.4c9.4 0 17 7.6 17 17v102.4zM273 541.257h-68.2v68.2h68.2v-68.2zM187.8 97.457h102.4c9.4 0 17 7.6 17 17v102.4c0 9.4-7.6 17-17 17h-102.4c-9.4 0-17-7.6-17-17v-102.4c-0.2-9.2 7.6-17 17-17zM204.8 199.857h68.2v-68.2h-68.2c0 0 0 68.2 0 68.2zM209.8 307.257c3.2-3.2 7.6-5 12-5 0.6 0 1.2 0 1.6 0 5 0.4 9.6 3.2 12.6 7.6l68.2 102.4c5.2 7.8 3.2 18.4-4.8 23.6-7.8 5.2-18.4 3.2-23.6-4.8l-56.8-85-19.4 19.4c-6.6 6.6-17.4 6.6-24.2 0s-6.6-17.4 0-24.2l34.4-34z" />
<glyph unicode="&#xe903;" glyph-name="pdf" horiz-adv-x="908" d="M105 956.8c-9-4.6-15.2-11-19.2-19.8-3.6-7.6-3.8-17-3.8-175.4v-167.6h-17.6c-10.8 0-21.2-1.2-27-3.2-12-4-25.2-15.8-31.4-28l-5-9.8-0.6-163.8-0.4-163.6 5-11.4c6.8-14.8 13.4-21.4 28-28.4 10.6-5 14.2-5.8 30.6-5.8h18.4v-213.2l4.6-8.8c2.4-4.8 7.8-11.6 12-14.8l7.8-6.2h695.2l7.8 6.2c4.2 3.2 9.6 10 12.2 14.8l4.4 8.8v213.2h18.6c16.2 0 19.8 0.8 30.4 5.8 14.6 7 21.2 13.6 28 28.4l5 11.4-0.4 163.6-0.6 163.8-5 9.8c-6.2 12.2-19.4 24-31.4 28-5.8 2-16.2 3.2-27 3.2h-17.6v63.6c-0.2 46-0.8 64.6-2.6 67.6-4 6.6-198.6 228-203.6 231.6-4.2 3-27.8 3.2-256.8 3.2-224.4 0-252.6-0.4-258-3.2zM586.4 811.8l0.6-106.2 6.6-5.8 6.4-5.8h184v-100h-660v324h461.8l0.6-106.2zM229.2 524.8c48-9.8 76.6-42.4 76.8-88 0-15-6.4-40.6-12.8-51.6-11.8-20-36.2-36.8-64.2-44.4-7.2-2-23.8-3.6-41.4-4.2l-29.6-1v-105.6h-66v293.4l23.6 2.4c12.8 1.2 27 2.6 31.4 3 16.4 1.6 66.8-0.8 82.2-4zM496.8 525c61.4-10.8 103.2-49 114.4-105 4-20.6 3-64.2-2.2-83-8.2-29.8-27-59-47.8-74.6-42-31.2-100-41-194.6-33l-14.6 1.2v293l13.6 1.4c45.8 5.2 101 5.2 131.2 0zM842 501v-27h-114v-70h106v-54h-106v-120h-66v298h180v-27zM784 84v-96h-660v192h660v-96zM162.4 478.8l-4.4-1 0.4-45.4 0.6-45.4 18.8-0.6c40.8-1.2 62.6 15.6 62.6 48.6 0 14-2.6 21.8-10 29.6-10.2 11-19.4 14-42.4 14.6-11.6 0.2-23 0-25.6-0.4zM430 478.2l-11-1.2-0.6-99.4-0.4-99.6h22.6c36.8 0 59.6 8 77.8 27.6 17.4 18.6 23.4 35.4 25 70.4 1.2 27.6-1.4 42.2-10.6 60.4s-30.4 33.8-52.8 39.2c-12.4 2.8-36.6 4.2-50 2.6z" />
<glyph unicode="&#xe904;" glyph-name="demographics" d="M955.8 950.857h-887.6c-37.6 0-68.2-30.6-68.2-68.2v-682.6c0-37.8 30.6-68.2 68.2-68.2h267.6l-24.4-85.4h-4.2c-47.2 0-85.2-38.2-85.4-85.4 0-18.8 15.2-34.2 34.2-34.2h512c18.8 0 34.2 15.2 34.2 34.2 0 47.2-38.2 85.2-85.4 85.4h-4.2l-24.4 85.4h267.6c37.8 0 68.2 30.6 68.2 68.2v682.6c0 37.6-30.6 68.2-68.2 68.2zM768-38.943h-512c0 28.2 23 51.2 51.2 51.2h409.6c28.2-0.2 51.2-23 51.2-51.2zM677 46.257h-330.2l24.4 85.4h281.4l24.4-85.4zM989.8 199.857c0-18.8-15.2-34.2-34.2-34.2h-887.4c-18.8 0-34.2 15.2-34.2 34.2v682.8c0 18.8 15.2 34.2 34.2 34.2h887.4c18.8 0 34.2-15.2 34.2-34.2v-682.8zM904.6 882.657h-785.2c-28.2 0-51.2-23-51.2-51.2v-512c0-28.2 23-51.2 51.2-51.2h785c28.2 0 51.2 23 51.2 51.2v512c0.2 28.2-22.8 51.2-51 51.2zM921.6 319.457c0-9.4-7.6-17-17-17h-785.2c-9.4 0-17 7.6-17 17v512c0 9.4 7.6 17 17 17h785c9.4 0 17-7.6 17-17v-512zM597.4 234.057h-170.6c-9.4 0-17-7.6-17-17s7.6-17 17-17h170.6c9.4 0 17 7.6 17 17s-7.6 17-17 17zM767.8 524.857c0 8.6-0.4 17.4-1.2 26-5.8 55.4-29.8 107.4-68 148-1.6 4.8-5.2 8.6-10 10.2-44.8 43-103.4 68.2-165.4 71-3.2 0.2-6.6 0-9.8 0-0.6 0-1 0.2-1.4 0.2s-1-0.2-1.6-0.4c-65.4 0-128.4-25.4-175.4-70.8l-0.2-0.2c-4.4-1.8-7.8-5.4-9.4-9.8-80.4-85.2-92.2-214.4-28.8-312.8 6.4-9.8 17.2-15.6 28.8-15.6h373.4c11.6 0 22.4 5.8 28.8 15.4 26.4 41 40.4 88.6 40.4 137.4 0 0.2 0.2 0.6 0.2 0.8s-0.4 0.4-0.4 0.6zM475 593.257l41.2-86.4c-13.6 1.2-27.2-2-38.8-9.2l-2.4 95.6zM482.8 456.657c4.8 7.8 12.4 13.2 21.2 15.4 2.6 0.6 5.2 1 8 0.8 15.8 0 29.4-10.8 33.2-26.2 3.6-15-3.4-30.6-17-38s-30.4-4.6-41 6.6c-10.6 11.4-12.4 28.4-4.4 41.4v0zM698.6 404.657h-127.8c13.6 23.4 12.2 52.6-3.8 74.4l-70 147c-7.6 10.2-20.8 14.8-33.2 11.6s-21.6-13.4-23.6-26l4-162.2c-2.6-15.6 0.4-31.4 8.6-45h-127.8v-0.2c-19.8 30.8-31.8 66-34.4 102.6h50.6c9.4 0 17 7.6 17 17s-7.6 17-17 17h-50.4c3.4 46.6 21.4 90.8 51.8 126.2l19-19c6.6-6.4 17.4-6.4 24 0.2s6.6 17.2 0.2 24l-18.8 19c35.8 31.2 80.6 50 128 53.6v-50c0-9.4 7.6-17 17-17s17 7.6 17 17v50.4c47.4-3.6 92.2-22.4 128-53.6l-18.8-18.8c-4.4-4.2-6.2-10.6-4.6-16.6s6.2-10.6 12.2-12.2 12.4 0.2 16.6 4.6l18.8 18.8c29-33.8 47-75.6 51.6-120 0.2-2 0.2-4.2 0.4-6.2h-50.6c-9.4 0-17-7.6-17-17s7.6-17 17-17h50.4c-2.6-36.6-14.4-71.8-34.4-102.6z" />
<glyph unicode="&#xe905;" glyph-name="documents" horiz-adv-x="785" d="M0 831.477v-887.515c0-9.363 7.563-17.106 17.106-17.106h648.575c9.363 0 17.106 7.563 17.106 17.106v716.818c0 0.36-0.18 0.72-0.18 1.080 0 1.44-0.36 3.061-0.9 4.321-0.18 0.54-0.36 1.080-0.54 1.621-0.9 1.801-1.981 3.601-3.421 5.042l-170.697 170.697c-1.44 1.44-3.061 2.521-5.042 3.421-0.54 0.18-1.080 0.36-1.621 0.54-1.44 0.54-2.881 0.72-4.501 0.9-0.36 0-0.54 0.18-0.9 0.18h-477.879c-9.543-0.18-17.106-7.743-17.106-17.106zM624.447 677.706h-112.357v112.537l112.357-112.537zM34.211 814.372h443.667v-153.591c0-9.363 7.563-17.106 17.106-17.106h153.591v-682.607h-614.364v853.303zM716.818 63.342v-34.211h51.137c9.363 0 17.106 7.563 17.106 17.106v887.515c0 9.363-7.563 17.106-17.106 17.106h-648.575c-9.363 0-17.106-7.563-17.106-17.106v-51.137h34.211v34.031h614.364v-853.303h-34.031zM136.485 609.464h409.636v-34.211h-409.636v34.211zM136.485 711.918h136.485v-34.211h-136.485v34.211zM136.485 507.19h273.151v-34.211h-273.151v34.211zM443.667 507.19h102.454v-34.211h-102.454v34.211zM136.485 404.736h409.636v-34.211h-409.636v34.211zM136.485 199.828h409.636v-34.211h-409.636v34.211zM290.076 302.282h256.045v-34.211h-256.045v34.211zM136.485 302.282h119.38v-34.211h-119.38v34.211zM136.485 97.554h68.243v-34.211h-68.243v34.211zM238.939 97.554h307.182v-34.211h-307.182v34.211z" />
<glyph unicode="&#xe906;" glyph-name="insurance" d="M512 710.857c-11 0-20-9-20-20s9-20 20-20 20 9 20 20-9 20-20 20zM532 870.457v60.4c0 11-9 20-20 20s-20-9-20-20v-60.4c-244.4-7.8-456.4-156.6-487.8-395.6-2.8-7.8-4.2-15.8-4.2-24 0-11 9-20 20-20 0.2 0 0.4 0 0.8 0s0.6 0 1 0c10.2 0 19 7.8 20 18.4 0.4 5.4 1 10.6 1.6 15.6 11.8 26.4 54.2 46 99.8 46 54.8 0 103-28 103-60 0-11 9-20 20-20 0.4 0 1 0 1.4 0 0.2 0 0.4 0 0.6 0 0 0 0.2 0 0.2 0 9.8 1 17.8 9.2 18 19.6 0 1.6 0 3.2 0.2 4.8 4.4 30.2 51 55.6 102.6 55.6 54.8 0 103-28 103-60v-204h-20c-11 0-20-9-20-20v-160c0-11-9-20-20-20s-20 9-20 20c0 33-27 60-60 60s-60-27-60-60c0-77.2 62.8-140 140-140s140 62.8 140 140v160c0 11-9 20-20 20h-20v204c0 32 48.2 60 103 60 51.6 0 98.4-25.4 102.6-55.4 0-1.6 0-3.2 0.2-5 0.2-10.2 8.2-18.6 18.2-19.6 0.6 0 1.4-0.2 2.2-0.2 11 0 20 9 20 20 0 32 48.2 60 103 60 45.6 0 88-19.6 99.8-46 0.6-5 1.2-10.2 1.6-15.6 0.8-10.4 9.6-18.4 20-18.4 0.4 0 0.6 0 1 0 0.2 0 0.4 0 0.8 0 11 0 20 9 20 20 0 8.2-1.4 16.2-4.2 24-32 238.8-243.6 388-488.4 395.8zM250.4 516.857c-26.2 20.8-64.6 34-107.4 34-32 0-62-7.4-86.2-20.2 42.4 141.6 162.2 246.6 320.8 284.6-79.6-72.2-116.2-191.6-127.2-298.4zM532 66.857c0-55.2-44.8-100-100-100s-100 44.8-100 100c0 11 9 20 20 20s20-9 20-20c0-33 27-60 60-60s60 27 60 60v140h40v-140zM728.4 526.657c-26 15.6-59.2 24.2-93.4 24.2-40.4 0-77-11.8-103-30.8v90.8c0 11-9 20-20 20s-20-9-20-20v-90.8c-26 19-62.6 30.8-103 30.8-34.2 0-67.2-8.6-93.4-24.2-1.4-0.8-2.8-1.8-4.2-2.6 20.8 169.6 99.4 291.2 200.6 305.4v-58.6c0-11 9-20 20-20s20 9 20 20v58.6c101.2-14.2 179.8-135.8 200.6-305.4-1.4 0.8-2.8 1.8-4.2 2.6zM881 550.857c-42.8 0-81-13.2-107.4-34-11 106.6-47.6 226.2-127.2 298.4 158.4-38 278.4-143 320.8-284.6-24.2 12.8-54.2 20.2-86.2 20.2z" />
<glyph unicode="&#xe907;" glyph-name="reports" horiz-adv-x="735" d="M672.4 870.657h-117.2c-5.2 9.6-15.4 16-27.2 16h-82.6c-3 15.4-10.4 29.6-21.8 41-14.8 15-34.8 23.2-55.8 23.2-21.2 0-41-8.2-56-23.2-11.4-11.4-18.8-25.6-21.8-41h-82.6c-11.6 0-21.8-6.4-27-16h-117.4c-34.6 0-63-28.2-63-63v-817.6c0-34.8 28.4-63.2 63-63.2h609.2c34.8 0 63.2 28.4 63.2 63v817.8c0 34.8-28.2 63-63 63zM207.4 856.657h96.2c4 0 7.8 1.6 10.6 4.4s4.4 6.6 4.4 10.6c0 13.2 5.2 25.4 14.4 34.8 9.2 9.2 21.6 14.4 34.8 14.4s25.4-5.2 34.8-14.4c9.2-9.2 14.4-21.6 14.4-34.8 0-4 1.6-7.8 4.4-10.6s6.6-4.4 10.6-4.4h96c0.6 0 1-0.4 1-1v-64.2c0-0.6-0.4-1-1-1h-320.6c-0.6 0-1 0.4-1 1 0 0 0 0 0 0s0 0 0 0v64c0 0.8 0.4 1.2 1 1.2zM705.4-10.143c0-18.2-14.8-33-33.2-33h-609.2c-18.2 0-33 14.8-33 33v817.8c0 18.2 14.8 33 33 33h113.2v-34.2h-97c-8.2 0-15-6.8-15-15v-657.4c0-8.2 6.8-15 15-15s15 6.8 15 15v642.6h86.2c5.2-9.6 15.4-16 27.2-16h320.4c11.6 0 21.8 6.4 27.2 16h86.2v-17c0-8.2 6.8-15 15-15s15 6.8 15 15v32c0 8.2-6.8 15-15 15h-97.2v34h113.2c18.2 0 33.2-14.8 33.2-33v-817.8zM656.2 710.457c-8.2 0-15-6.8-15-15v-642.4h-547v17c0 8.2-6.8 15-15 15s-15-6.8-15-15v-32c0-8.2 6.8-15 15-15h577.2c8.2 0 15 6.8 15 15v657.4c-0.2 8.2-6.8 15-15.2 15zM367.8 856.657c8.2 0 15 6.8 15 15s-6.8 15-15 15h-0.2c-8.2 0-15-6.8-15-15 0.2-8.2 7-15 15.2-15zM191.4 520.057h33v-33c0-17.2 14-31 31-31h32c17.2 0 31 14 31 31v33h33.2c17.2 0 31 14 31 31v32c0 17.2-14 31-31 31h-33.2v33.2c0 17.2-14 31-31 31h-32c-17.2 0-31-14-31-31v-33.2h-33c-17.2 0-31-14-31-31v-32c0-17 13.8-31 31-31zM190.4 583.057c0 0.6 0.4 1 1 1h48c8.2 0 15 6.8 15 15v48.2c0 0.6 0.4 1 1 1h32c0.6 0 1-0.4 1-1v-48.2c0-8.2 6.8-15 15-15h48.2c0.6 0 1-0.4 1-1v-32c0-0.6-0.4-1-1-1h-48.2c-8.2 0-15-6.8-15-15v-48c0-0.6-0.4-1-1-1h-32c-0.6 0-1 0.4-1 1v48c0 8.2-6.8 15-15 15h-48c-0.6 0-1 0.4-1 1v32zM447.8 616.257h64.2c8.2 0 15 6.8 15 15s-6.8 15-15 15h-64.2c-8.2 0-15-6.8-15-15s6.8-15 15-15zM447.8 552.057h112.2c8.2 0 15 6.8 15 15s-6.8 15-15 15h-112.2c-8.2 0-15-6.8-15-15s6.8-15 15-15zM447.8 488.057h112.2c8.2 0 15 6.8 15 15s-6.8 15-15 15h-112.2c-8.2 0-15-6.8-15-15 0-8.4 6.8-15 15-15zM175.4 359.657h336.6c8.2 0 15 6.8 15 15s-6.8 15-15 15h-336.6c-8.2 0-15-6.8-15-15s6.6-15 15-15zM175.4 295.657h384.8c8.2 0 15 6.8 15 15s-6.8 15-15 15h-384.8c-8.2 0-15-6.8-15-15s6.6-15 15-15zM175.4 167.257h160.4c8.2 0 15 6.8 15 15s-6.8 15-15 15h-160.4c-8.2 0-15-6.8-15-15s6.6-15 15-15zM560 261.457h-272.4c-8.2 0-15-6.8-15-15s6.8-15 15-15h272.4c8.2 0 15 6.8 15 15s-6.6 15-15 15zM175.4 231.457h48.2c8.2 0 15 6.8 15 15s-6.8 15-15 15h-48.2c-8.2 0-15-6.8-15-15s6.6-15 15-15z" />
<glyph unicode="&#xe908;" glyph-name="envelope" horiz-adv-x="1365" d="M1237.338 960h-1109.323c-70.701 0-128.015-57.314-128.015-128.015v0-768.030c0.034-70.675 57.335-127.955 128.015-127.955h1109.323c70.701 0 128.015 57.314 128.015 128.015v0 767.97c0 70.701-57.314 128.015-128.015 128.015v0zM116.969 21.741l-31.168 31.228 351.922 351.743 31.168-31.228-351.922-351.743zM1248.444 21.741l-351.981 351.922 31.168 31.228 351.981-351.922zM725.398 306.133l-42.692-35.168-42.692 35.168-554.572 514.15 54.275 54.275 542.929-503.402 542.929 503.402 54.275-54.275z" />
<glyph unicode="&#xe909;" glyph-name="alarm" horiz-adv-x="896" d="M799.992 223.992h-703.995l-95.997-95.997v-32.013l32.013-32.013h287.992c-0.026-0.96-0.041-2.091-0.041-3.225 0-70.698 57.312-128.010 128.010-128.010s128.010 57.312 128.010 128.010c0 1.134-0.015 2.265-0.044 3.391l0.003-0.167h287.992l32.013 32.013v32.013zM767.98 479.931c-0.028 130.396-78.054 242.562-189.959 292.383l-2.036 0.809v58.866c0.026 0.96 0.041 2.091 0.041 3.225 0 70.698-57.312 128.010-128.010 128.010s-128.010-57.312-128.010-128.010c0-1.134 0.015-2.265 0.044-3.391l-0.003 0.167v-58.866c-113.941-50.63-191.967-162.796-191.995-293.189v-224.012h639.766zM383.99 831.99c0 35.349 28.656 64.005 64.005 64.005s64.005-28.656 64.005-64.005v0z" />
<glyph unicode="&#xe90a;" glyph-name="doc" horiz-adv-x="907" d="M849.456 593.712h-24.585v118.62c-0.025 0.812-0.1 1.584-0.224 2.34l0.014-0.102c0 0.048 0.001 0.105 0.001 0.161 0 4.921-1.804 9.42-4.786 12.874l0.021-0.025-197.426 225.551s-0.115 0-0.153 0.134c-1.166 1.27-2.479 2.376-3.92 3.301l-0.079 0.047c-0.44 0.287-0.861 0.536-1.32 0.784-1.14 0.641-2.464 1.213-3.851 1.644l-0.148 0.040c-0.364 0.096-0.708 0.249-1.071 0.344-1.4 0.358-3.008 0.567-4.664 0.574h-485.124c-22.19 0-40.178-17.988-40.178-40.178v0-326.091h-24.566c-31.699 0-57.397-25.697-57.397-57.397v0-298.464c0-31.699 25.697-57.397 57.397-57.397v0h24.585v-204.314c0-22.19 17.988-40.178 40.178-40.178h662.571c22.19 0 40.178 17.988 40.178 40.178v0 204.314h24.585c31.699 0 57.397 25.697 57.397 57.397v0 298.464c-0.011 31.691-25.704 57.378-57.397 57.378-0.013 0-0.027 0-0.040 0h0.002zM122.141 919.822h465.126v-205.424c0-0.006 0-0.013 0-0.019 0-11.057 8.942-20.026 19.989-20.070h177.38v-100.598h-662.495zM603.95 403.422c0-91.28-55.35-146.611-136.72-146.611-82.594 0-130.922 62.371-130.922 141.579 0 83.436 53.284 145.807 135.476 145.807 85.464 0.057 132.166-63.94 132.166-140.776zM61.606 262.57v273.42c24.089 3.667 51.882 5.761 80.164 5.761 1.736 0 3.47-0.008 5.202-0.024l-0.265 0.002c52.863 0 87.129-9.566 113.99-29.732 28.928-22.757 47.335-57.763 47.335-97.068 0-2.763-0.091-5.505-0.27-8.223l0.019 0.369c0.146-2.402 0.229-5.211 0.229-8.039 0-41.473-17.881-78.77-46.354-104.602l-0.118-0.105c-29.33-24.375-73.946-35.93-128.474-35.93-1.196-0.009-2.611-0.015-4.026-0.015-23.77 0-47.185 1.521-70.152 4.471l2.72-0.285zM784.808-12.936h-662.667v193.409h662.59zM787.85 309.252c18.817 0.037 36.846 3.364 53.558 9.436l-1.097-0.348 9.566-49.151c-19.194-7.661-41.439-12.104-64.722-12.104-2.369 0-4.728 0.046-7.075 0.137l0.338-0.010c-96.236 0-145.807 59.884-145.807 139.188 0 94.973 67.728 147.855 151.968 147.855 1.716 0.064 3.731 0.101 5.755 0.101 22.671 0 44.268-4.595 63.912-12.903l-1.077 0.405-12.819-49.974c-15.366 6.535-33.239 10.334-52 10.334-0.303 0-0.607-0.001-0.91-0.003h0.047c-49.974 0-88.812-30.153-88.812-92.103-0.134-55.752 32.946-90.879 89.080-90.879zM240.838 405.067c0.421 57.837-33.462 88.391-87.549 88.391-0.892 0.022-1.942 0.034-2.996 0.034-9.028 0-17.842-0.918-26.353-2.666l0.841 0.144v-182.159c5.251-0.845 11.305-1.328 17.472-1.328 1.553 0 3.099 0.031 4.637 0.091l-0.221-0.007c56.995-0.383 94.169 31.033 94.169 97.498zM402.793 399.71c0-54.546 25.618-92.945 67.728-92.945 42.55 0 66.963 40.484 66.963 94.59 0 49.993-23.954 92.926-67.327 92.926-42.569-0.019-67.365-40.484-67.365-94.571z" />
<glyph unicode="&#xe90b;" glyph-name="arrow-left" horiz-adv-x="632" d="M533.997 958.957c-13.559-2.37-29.393-9.671-40.012-18.394-3.413-2.844-115.674-114.726-249.647-248.604l-243.39-243.484 247.656-247.561c267.852-267.662 250.88-251.354 267.852-258.181 12.326-5.025 26.359-7.016 39.727-5.689 10.904 1.138 18.204 3.129 27.686 7.585 22.661 10.524 39.253 29.772 46.175 53.57 2.086 7.206 2.37 9.956 2.37 23.609s-0.284 16.403-2.37 23.514c-2.844 9.956-6.542 17.636-12.421 26.074-2.844 4.172-68.646 70.637-189.63 191.716l-185.268 185.363 184.984 184.889c130.276 130.276 186.406 186.975 189.914 192 6.637 9.387 9.387 14.886 12.326 25.126 2.181 7.585 2.465 10.050 2.465 23.704 0 11.757-0.474 16.687-1.801 21.807-3.603 13.464-7.68 21.618-16.877 32.996-10.24 12.705-27.876 23.988-44.373 28.255-8.723 2.276-27.307 3.224-35.366 1.707z" />
<glyph unicode="&#xe90c;" glyph-name="play" d="M512.015 960c-0.009 0-0.019 0-0.030 0-282.778 0-512.015-229.237-512.015-512.015s229.237-512.015 512.015-512.015c282.778 0 512.015 229.237 512.015 512.015v0c0 282.768-229.22 511.998-511.984 512.015h-0.001zM688.974 420.85l-255.993-160.144c-4.814-3.054-10.677-4.866-16.963-4.866-17.673 0-31.999 14.326-31.999 31.999 0 0.001 0 0.002 0 0.003v0 320.169c0 0.001 0 0.002 0 0.003 0 17.673 14.326 31.999 31.999 31.999 6.286 0 12.149-1.813 17.094-4.944l-0.131 0.078 255.993-160.144c9.091-5.749 15.040-15.747 15.040-27.135s-5.949-21.387-14.909-27.058l-0.131-0.078z" />
<glyph unicode="&#xe90d;" glyph-name="ppt" horiz-adv-x="906" d="M463.041 490.914c-0.926 0.027-2.015 0.042-3.108 0.042-8.818 0-17.406-0.983-25.661-2.846l0.776 0.147v-88.561c5.847-1.17 12.57-1.84 19.449-1.84 1.129 0 2.254 0.018 3.375 0.054l-0.163-0.004c36.002 0 58.219 18.251 58.219 48.94-0.039 27.608-19.137 44.069-52.887 44.069zM257.656 446.941c0 27.589-19.098 44.030-52.867 44.030-0.926 0.027-2.015 0.042-3.108 0.042-8.818 0-17.406-0.983-25.661-2.846l0.776 0.147v-88.561c5.847-1.17 12.568-1.84 19.446-1.84 1.13 0 2.257 0.018 3.378 0.054l-0.164-0.004c36.002-0.019 58.2 18.174 58.2 48.978zM848.572 593.722h-24.643v118.634c-0.025 0.81-0.101 1.58-0.226 2.334l0.014-0.101c0 0.046 0.001 0.1 0.001 0.154 0 4.917-1.8 9.414-4.777 12.867l0.022-0.026-197.184 225.543s-0.116 0-0.154 0.135c-1.163 1.269-2.472 2.376-3.907 3.303l-0.078 0.047c-0.424 0.289-0.866 0.539-1.309 0.77-1.131 0.638-2.444 1.207-3.82 1.636l-0.146 0.039c-0.366 0.096-0.712 0.25-1.078 0.347-1.369 0.357-2.945 0.574-4.568 0.597h-484.714c-22.159-0.033-40.111-17.999-40.122-40.16v-326.118h-24.547c-0.017 0-0.037 0-0.058 0-31.675 0-57.353-25.678-57.353-57.353 0-0.014 0-0.027 0-0.041v0.002-298.413c0-0.006 0-0.013 0-0.019 0-31.672 25.665-57.35 57.332-57.372h24.568v-204.326c0.011-22.162 17.963-40.128 40.119-40.161h661.941c22.126 0.077 40.034 18.025 40.045 40.16v204.27h24.643c31.669 0.022 57.334 25.7 57.334 57.372 0 0.007 0 0.014 0 0.020v-0.001 298.413c0 0.023 0 0.050 0 0.077 0 31.672-25.665 57.35-57.332 57.372h-0.002zM122.003 919.839h464.639v-205.462c0.011-11.075 8.986-20.050 20.060-20.061h177.124v-100.594h-661.823zM583.003 448.655c0.051-1.167 0.080-2.537 0.080-3.913 0-26.241-10.542-50.020-27.622-67.332l0.011 0.011c-23.845-19.823-54.781-31.854-88.528-31.854-3.101 0-6.177 0.102-9.227 0.302l0.415-0.022c-0.49-0.005-1.069-0.008-1.648-0.008-7.563 0-15.013 0.486-22.319 1.427l0.864-0.091v-107.217h-67.114v295.91c25.051 4.008 53.934 6.299 83.351 6.299 2.888 0 5.771-0.022 8.649-0.066l-0.435 0.005c3.402 0.287 7.363 0.45 11.362 0.45 29.906 0 57.675-9.148 80.662-24.798l-0.498 0.32c19.611-16.204 32.014-40.528 32.014-67.749 0-0.589-0.006-1.177-0.017-1.763l0.001 0.088zM109.662 239.958v295.91c25.052 4.008 53.934 6.299 83.352 6.299 2.888 0 5.77-0.022 8.647-0.066l-0.435 0.005c3.404 0.287 7.366 0.451 11.367 0.451 29.904 0 57.672-9.148 80.657-24.798l-0.498 0.32c19.609-16.2 32.012-40.521 32.012-67.739 0-0.552-0.005-1.103-0.015-1.653l0.001 0.082c0.051-1.17 0.080-2.542 0.080-3.92 0-26.239-10.542-50.015-27.622-67.324l0.010 0.011c-23.858-19.888-54.838-31.961-88.637-31.961-3.055 0-6.087 0.099-9.094 0.293l0.409-0.021c-0.485-0.005-1.059-0.008-1.632-0.008-7.568 0-15.023 0.486-22.336 1.427l0.865-0.091v-107.217h-67.133zM783.883-12.962h-661.88v193.429h661.88v-193.429zM833.67 482.924h-81.765v-242.966h-67.98v242.966h-80.456v56.93h230.202z" />
<glyph unicode="&#xe90e;" glyph-name="round" d="M1024 448c0-282.77-229.23-512-512-512s-512 229.23-512 512c0 282.77 229.23 512 512 512s512-229.23 512-512z" />
<glyph unicode="&#xe90f;" glyph-name="xlsx" horiz-adv-x="907" d="M849.481 593.728h-24.602v118.727c-0.030 0.822-0.105 1.597-0.224 2.358l0.014-0.111c0 0.041 0 0.090 0 0.138 0 4.929-1.81 9.436-4.801 12.892l0.021-0.025-197.427 225.419s-0.114 0-0.152 0.133c-1.166 1.272-2.479 2.379-3.92 3.304l-0.079 0.047c-0.419 0.286-0.857 0.533-1.314 0.781-1.128 0.634-2.439 1.203-3.811 1.635l-0.149 0.041c-0.381 0.114-0.705 0.267-1.028 0.362-1.399 0.357-3.006 0.565-4.661 0.571h-485.212c-22.171-0.022-40.138-17.989-40.159-40.157v-326.114h-24.583c-31.697 0-57.392-25.695-57.392-57.392v0-298.464c0.011-31.693 25.7-57.382 57.391-57.392h24.584v-204.32c0.022-22.171 17.989-40.138 40.157-40.159h662.662c22.171 0.022 40.138 17.989 40.159 40.157v204.322h24.507c31.693 0.011 57.382 25.7 57.392 57.391v298.446c0 0.011 0 0.025 0 0.038 0 31.686-25.687 57.373-57.373 57.373v0zM122.135 919.841h465.119v-205.482c0.011-11.080 8.99-20.059 20.069-20.070h177.396v-100.599h-662.66zM528.928 372.327c-39.455 13.748-65.2 35.57-65.2 70.112 0 40.521 33.819 71.522 89.859 71.522 0.819 0.017 1.785 0.026 2.753 0.026 20.915 0 40.797-4.417 58.766-12.37l-0.928 0.367-11.977-43.32c-14.378 7.113-31.305 11.274-49.205 11.274-0.167 0-0.334 0-0.502-0.001h0.026c-23.25 0-34.523-10.568-34.523-22.85 0-15.234 13.329-21.841 44.044-33.476 41.892-15.519 61.658-37.36 61.658-70.817 0-39.817-30.658-73.654-95.838-73.654-0.553-0.007-1.205-0.011-1.859-0.011-23.749 0-46.253 5.333-66.379 14.866l0.943-0.402 10.911 44.387c17.322-8.971 37.755-14.394 59.416-14.794l0.129-0.002c24.755 0 37.703 10.206 37.703 25.726 0.019 14.738-11.254 23.174-39.798 33.419zM438.060 317.715v-45.129h-148.356v237.548h53.927v-192.324zM117.432 272.586h-61.315l68.703 120.193-66.247 117.337h61.677l20.775-43.301c7.046-14.453 12.339-26.068 17.976-39.474h0.686c5.713 15.234 10.226 25.726 16.205 39.474l20.089 43.339h61.315l-66.952-115.908 70.455-121.583h-62.001l-21.498 42.997c-8.797 16.528-14.434 28.887-21.137 42.635h-0.705c-4.932-13.748-10.911-26.087-18.318-42.635zM784.719-13.044h-662.66v193.523h662.66v-193.523zM785.081 272.586l-21.498 43.016c-8.759 16.566-14.472 28.887-21.137 42.673h-0.686c-4.951-13.748-10.949-26.068-18.356-42.635l-19.708-43.054h-61.315l68.646 120.212-66.247 117.337h61.677l20.851-43.32c7.046-14.453 12.32-26.068 17.957-39.474h0.705c5.713 15.234 10.187 25.726 16.186 39.474l20.089 43.339h61.315l-66.952-115.908 70.455-121.583h-61.982z" />
<glyph unicode="&#xe910;" glyph-name="cloud" horiz-adv-x="1407" d="M1099.485-64h-301.779v305.097h99.953c17.227 0.024 31.183 13.995 31.183 31.225 0 6.845-2.203 13.176-5.938 18.322l0.062-0.090-194.109 268.594c-5.683 7.875-14.834 12.94-25.168 12.94s-19.485-5.066-25.106-12.849l-0.063-0.091-194.109-268.594c-3.719-5.068-5.952-11.429-5.952-18.312 0-17.201 13.944-31.145 31.145-31.145 0.040 0 0.080 0 0.121 0h99.947v-305.097h-338.521c-153.023 16.37-271.157 144.788-271.157 300.798 0 0.541 0.001 1.082 0.004 1.623v-0.083c0 0.024 0 0.053 0 0.082 0 104.994 56.485 196.796 140.725 246.674l1.328 0.728c-7.471 19.694-11.796 42.464-11.796 66.245 0 0.269 0.001 0.537 0.002 0.805v-0.041c0 0.059 0 0.13 0 0.2 0 107.557 87.192 194.749 194.749 194.749 0.070 0 0.141 0 0.211 0h-0.011c0.159 0 0.347 0.001 0.536 0.001 23.763 0 46.515-4.325 67.513-12.231l-1.32 0.436c63.925 133.488 197.945 224.040 353.115 224.040 202.372 0 368.77-154.021 388.367-351.236l0.131-1.624c157.083-31.905 273.646-168.891 273.646-333.102 0-176.319-134.387-321.25-306.321-337.955l-1.388-0.109z" />
<glyph unicode="&#xe911;" glyph-name="pencil" horiz-adv-x="1029" d="M639.823 789.098l209.32-209.32-529.655-529.655-209.39 209.108zM1007.969 839.592l-93.29 93.361c-16.758 16.716-39.887 27.051-65.43 27.051s-48.672-10.336-65.432-27.053l-89.474-89.404 209.532-209.178 104.307 104.307c12.841 12.907 20.779 30.703 20.779 50.352 0 19.755-8.023 37.636-20.989 50.563l-0.002 0.002zM0.565-34.975c-0.353-1.536-0.555-3.299-0.555-5.11 0-13.144 10.655-23.799 23.799-23.799 1.976 0 3.897 0.241 5.733 0.695l-0.164-0.034 233.048 56.497-209.037 209.32z" />
<glyph unicode="&#xe912;" glyph-name="upload" horiz-adv-x="1142" d="M306.479 601.037h115.578v-342.764c0-34.756 28.176-62.932 62.932-62.932h171.787c34.756 0 62.932 28.176 62.932 62.932v0 342.764h115.497c0.11-0.001 0.241-0.001 0.372-0.001 26.078 0 47.219 21.141 47.219 47.219 0 13.233-5.443 25.194-14.213 33.767l-264.372 264.372c-8.569 8.543-20.393 13.824-33.45 13.824s-24.881-5.282-33.451-13.826l-264.362-264.605c-8.708-8.584-14.103-20.509-14.103-33.694 0-26.123 21.177-47.3 47.3-47.3 0.061 0 0.121 0 0.182 0h-0.009zM1085.312 472.582c-31.312 0-56.695-25.383-56.695-56.695v0-237.392c-0.092-71.204-57.812-128.895-129.018-128.942h-657.104c0 0 0 0 0 0-71.217 0-128.965 57.663-129.103 128.847v237.405c0 31.312-25.383 56.695-56.695 56.695s-56.695-25.383-56.695-56.695v0-237.392c0.276-133.815 108.68-242.218 242.468-242.494h656.56c133.815 0.276 242.218 108.68 242.494 242.468v237.419c0 0.025 0 0.054 0 0.083 0 31.141-25.107 56.418-56.183 56.693h-0.026z" />
<glyph unicode="&#xe913;" glyph-name="arrow-down" horiz-adv-x="1658" d="M112.072 957.697c-24.564-5.527-41.451-13.357-59.567-27.634-22.414-17.809-40.53-45.443-48.206-73.691-4.913-18.116-4.913-51.891 0-69.085 5.066-17.655 15.659-38.688 26.252-51.737 5.066-6.141 186.531-188.527 403.459-405.455l394.248-394.094 400.849 401.003c433.396 433.703 406.99 406.222 418.044 433.703 8.137 19.958 11.361 42.679 9.211 64.326-1.842 17.655-5.066 29.476-12.282 44.829-17.041 36.692-47.592 63.098-86.894 75.073-12.128 3.685-16.12 3.992-37.306 4.145-25.792 0.154-37.153-1.996-57.571-10.9-23.182-10.286-18.423-5.527-333.145-320.096l-300.906-300.599-299.37 299.524c-210.941 210.941-302.748 301.827-310.885 307.507-24.564 17.502-44.061 23.95-75.226 24.871-14.585 0.461-23.643-0.154-30.705-1.689z" />
<glyph unicode="&#xe914;" glyph-name="arrow-right" horiz-adv-x="632" d="M77.653 958.957c-10.145-1.043-18.015-3.224-27.212-7.585-22.661-10.524-38.969-29.393-46.364-53.665-2.276-7.49-2.465-9.956-2.56-23.040-0.095-15.929 1.233-22.945 6.732-35.556 6.353-14.317 3.413-11.378 197.689-205.748l185.647-185.837-184.984-184.889c-185.932-185.932-190.957-191.052-197.404-203.947-9.102-18.11-10.714-44.089-3.887-64.759 6.827-20.575 23.135-38.969 43.33-48.924 13.464-6.637 21.239-8.344 37.641-8.439 11.567 0 14.981 0.284 21.239 2.086 8.913 2.56 19.247 7.206 26.833 12.136 3.698 2.37 86.281 84.29 251.828 249.647 135.396 135.396 246.234 246.519 246.234 247.087s-111.218 112.166-247.182 248.036c-217.6 217.41-248.13 247.656-254.104 251.164-17.161 9.956-35.176 14.127-53.476 12.231z" />
<glyph unicode="&#xe915;" glyph-name="arrow-up" horiz-adv-x="1658" d="M428.944 558.997c-433.396-433.703-406.99-406.222-418.044-433.703-8.137-19.958-11.361-42.679-9.211-64.326 1.842-17.655 5.066-29.476 12.282-44.829 17.041-36.692 47.592-63.098 86.894-75.073 12.128-3.685 16.12-3.992 37.306-4.145 25.792-0.154 37.153 1.996 57.571 10.9 23.182 10.286 18.423 5.527 333.145 320.096l300.906 300.599 299.37-299.524c301.059-301.059 309.349-309.196 330.228-319.635 29.323-14.738 71.388-17.348 104.856-6.294 33.315 11.054 63.098 37.46 79.218 70.16 10.747 21.8 13.51 34.389 13.664 60.949 0 18.73-0.461 24.257-3.378 34.543-5.066 17.655-15.659 38.688-26.252 51.737-5.066 6.141-186.531 188.527-403.459 405.455l-394.248 394.094-400.849-401.003z" />
<glyph unicode="&#xe916;" glyph-name="schedule" horiz-adv-x="987" d="M899.542 839.861c-2.125 0-4.251 0-6.376 0h-78.878v67.779c0 27.159-25.978 43.218-53.137 43.218h-72.738c-27.159 0-46.996-16.059-46.996-43.218v-67.779h-295.911v67.779c0 27.159-19.601 43.218-46.76 43.218h-72.974c-27.159 0-52.9-16.059-52.9-43.218v-67.779h-79.114c-50.303 1.417-92.339-38.258-93.756-88.797 0-2.125 0-4.251 0-6.376v-713.21c0-54.317 39.439-104.856 93.756-104.856h799.41c54.317 0 93.756 50.539 93.756 104.856v713.21c2.362 50.539-36.841 93.048-87.38 95.173zM688.649 901.499h76.517v-135.793h-76.517v135.793zM225.771 901.499h70.376v-135.793h-70.376c0 0 0 135.793 0 135.793zM937.801 31.713c0-27.159-17.24-55.498-44.399-55.498h-799.646c-27.159 0-44.399 28.339-44.399 55.498v524.28h888.443v-524.28zM937.801 744.923v-139.336h-888.443v139.336c-2.125 22.908 14.878 43.454 38.022 45.343 2.125 0.236 4.251 0.236 6.376 0h78.878v-27.159c0-27.159 25.978-46.996 53.137-46.996h72.738c25.269-0.708 46.288 19.129 46.996 44.399 0 0.945 0 1.653 0 2.598v27.395h296.148v-27.159c-0.708-25.269 19.129-46.288 44.399-46.996 0.945 0 1.653 0 2.598 0h72.738c27.159 0 53.137 19.838 53.137 46.996v27.159h78.878c23.144 1.417 42.982-16.059 44.399-39.203 0.236-2.125 0.236-4.251 0-6.376zM356.605 219.226l-22.199-123.277c-0.945-5.196 0-10.627 2.362-15.587 6.376-12.044 21.255-16.768 33.299-10.391l110.996 58.096 110.996-58.096 11.1-2.362c5.432 0 10.627 1.653 14.878 4.959 7.321 5.432 11.1 14.406 9.919 23.38l-22.199 123.277 89.978 86.435c6.376 6.849 8.738 16.768 6.14 25.978-3.306 8.502-10.863 14.406-19.838 16.059l-123.277 18.421-55.498 112.177c-2.362 4.959-6.376 8.974-11.336 11.336-12.28 5.904-26.923 0.708-33.063-11.336l-55.498-112.177-123.277-18.421c-8.974-1.417-16.531-7.557-19.838-16.059-2.598-9.21-0.236-18.893 6.14-25.978l90.214-86.435zM424.62 319.123c7.793 1.181 14.406 6.376 17.24 13.461l39.439 78.878 39.439-78.878c3.070-7.321 9.446-12.517 17.24-13.461l87.616-12.28-62.819-60.458c-5.904-5.904-8.502-13.934-7.321-22.199l14.878-87.616-77.697 42.037-11.1 2.362-11.1-2.362-77.697-42.037 14.878 87.616c1.181 8.266-1.653 16.295-7.321 22.199l-62.819 60.458 87.144 12.28z" />
<glyph unicode="&#xe917;" glyph-name="cross" d="M734.618 212.531c-24.013-24.013-62.925-24.013-86.886 0l-135.731 155.136-135.731-155.085c-24.013-24.013-62.925-24.013-86.886 0-24.013 24.013-24.013 62.925 0 86.886l141.21 161.28-141.261 161.382c-24.013 24.013-24.013 62.874 0 86.886s62.874 24.013 86.886 0l135.782-155.187 135.731 155.187c24.013 24.013 62.874 24.013 86.886 0s24.013-62.925 0-86.886l-141.21-161.382 141.21-161.28c24.013-24.013 24.013-62.925 0-86.938z" />
<glyph unicode="&#xe918;" glyph-name="check-mark" horiz-adv-x="1373" d="M621.663-26.387c-28.869-28.855-68.743-46.702-112.786-46.702s-83.918 17.846-112.787 46.702l-349.423 349.423c-28.845 28.857-46.686 68.716-46.686 112.742 0 88.074 71.398 159.472 159.472 159.472 44.048 0 83.925-17.859 112.786-46.73l208.173-208.173c7.307-7.271 17.383-11.766 28.509-11.766s21.202 4.495 28.511 11.768l563.751 563.751c28.861 28.872 68.738 46.731 112.786 46.731 88.074 0 159.472-71.398 159.472-159.472 0-44.026-17.841-83.885-46.687-112.742l0.001 0.001z" />
<glyph unicode="&#xe919;" glyph-name="dashboard" horiz-adv-x="1461" d="M964.169 912.877c-70.064 24.65-150.851 38.892-234.964 38.892-402.734 0-729.214-326.48-729.214-729.214 0-1.272 0.003-2.543 0.010-3.813l-0.001 0.196c-0.023-2.687-0.037-5.862-0.037-9.041 0-90.061 10.671-177.629 30.818-261.509l-1.542 7.604c0.998-15.731 13.509-28.241 29.149-29.235l0.091-0.005h1336.684c16.621 2.957 30.119 14.044 36.404 28.921l0.119 0.318c15.519 77.267 26.017 167.749 29.162 260.097l0.077 2.849c0.020 1.979 0.031 4.318 0.031 6.659 0 318.557-205.793 589.049-491.686 685.782l-5.1 1.498zM730.462 803.308c40.227 0 72.838-32.611 72.838-72.838s-32.611-72.838-72.838-72.838v0c-40.227 0-72.838 32.611-72.838 72.838s32.611 72.838 72.838 72.838v0zM219.139 145.892c-40.227 0-72.838 32.611-72.838 72.838s32.611 72.838 72.838 72.838v0c40.227 0 72.838-32.611 72.838-72.838s-32.611-72.838-72.838-72.838v0zM423.71 525.69c-12.892-13.508-31.037-21.906-51.143-21.906s-38.25 8.398-51.117 21.879l-0.026 0.028c-14.221 15.623-22.929 36.482-22.929 59.375 0 18.77 5.854 36.172 15.835 50.482l-0.19-0.288c12.892 13.508 31.037 21.906 51.143 21.906s38.25-8.398 51.117-21.879l0.026-0.028c14.196-15.617 22.888-36.458 22.888-59.33 0-18.744-5.838-36.125-15.795-50.424l0.19 0.289zM730.462 72.845c-80.33 0-153.376 72.838-131.525 145.676s131.525 292.601 131.525 292.601 109.569-219.139 131.525-292.185-51.195-146.092-131.525-146.092zM1146.68 525.69c-13.086-13.083-31.163-21.175-51.13-21.175-39.94 0-72.318 32.378-72.318 72.318s32.378 72.318 72.318 72.318c19.967 0 38.044-8.092 51.13-21.175v0c10.308-14.188 16.491-31.953 16.491-51.163 0-19.147-6.142-36.86-16.563-51.275l0.177 0.257zM1241.682 145.892c-40.227 0-72.838 32.611-72.838 72.838s32.611 72.838 72.838 72.838c40.227 0 72.838-32.611 72.838-72.838v0c0.072-1.183 0.114-2.566 0.114-3.958 0-38.101-30.887-68.988-68.988-68.988-1.358 0-2.706 0.039-4.045 0.117l0.185-0.009z" />
<glyph unicode="&#xe91a;" glyph-name="plus" d="M1024 536.488v-195.33c0-14.712-11.927-26.639-26.639-26.639v0h-361.023v-361.091c0-14.712-11.927-26.639-26.639-26.639h-195.33c-14.712 0-26.639 11.927-26.639 26.639v0 361.091h-361.091c-14.712 0-26.639 11.927-26.639 26.639v195.33c0 14.712 11.927 26.639 26.639 26.639v0h361.091v361.091c0 14.712 11.927 26.639 26.639 26.639v0h195.33c14.712 0 26.639-11.927 26.639-26.639v0-361.091h361.091c14.683-0.039 26.571-11.951 26.571-26.639 0 0 0 0 0 0v0z" />
<glyph unicode="&#xe91b;" glyph-name="task" horiz-adv-x="768" d="M543.986 886.884h-69.51c-13.589 37.604-48.978 63.996-90.531 63.996s-76.942-26.392-90.319-63.328l-0.212-0.668h-69.437c-17.666 0-31.986-14.321-31.986-31.986v0-128.018c0-17.666 14.321-31.986 31.986-31.986h320.009c17.666 0 31.986 14.321 31.986 31.986v0 127.945c0 0.022 0 0.047 0 0.073 0 17.666-14.321 31.986-31.986 31.986 0 0 0 0 0 0v0zM703.991 822.839h-63.973v-96.032c-0.041-53.020-43.012-95.99-96.028-96.032h-320.013c-53.020 0.041-95.99 43.012-96.032 96.028v96.036h-63.973c-35.298-0.083-63.89-28.675-63.973-63.965v-768.044c-0.002-0.196-0.003-0.427-0.003-0.659 0-34.969 28.348-63.317 63.317-63.317 0.232 0 0.463 0.001 0.694 0.004h639.983c0.196-0.002 0.427-0.003 0.659-0.003 34.969 0 63.317 28.348 63.317 63.317 0 0.232-0.001 0.463-0.004 0.694v-0.035 768.036c0.002 0.196 0.003 0.427 0.003 0.659 0 34.969-28.348 63.317-63.317 63.317-0.232 0-0.463-0.001-0.694-0.004h0.035zM374.655 256.192l-128.018-128.018c-5.809-5.779-13.817-9.351-22.66-9.351s-16.851 3.572-22.661 9.352l-63.972 63.972c-5.79 5.79-9.371 13.789-9.371 22.624 0 17.67 14.324 31.995 31.995 31.995 8.835 0 16.834-3.581 22.624-9.371v0l41.386-41.313 105.358 105.358c5.796 5.805 13.809 9.397 22.66 9.397 17.684 0 32.020-14.336 32.020-32.020 0-8.833-3.577-16.831-9.361-22.624v0zM374.655 512.229l-128.018-128.018c-5.809-5.779-13.817-9.351-22.66-9.351s-16.851 3.572-22.661 9.352l-63.972 63.972c-5.79 5.79-9.371 13.789-9.371 22.624 0 17.67 14.324 31.995 31.995 31.995 8.835 0 16.834-3.581 22.624-9.371v0l41.386-41.313 105.358 105.358c5.796 5.805 13.809 9.397 22.66 9.397 17.684 0 32.020-14.336 32.020-32.020 0-8.833-3.577-16.831-9.361-22.624v0zM607.813 182.893h-127.8c-17.666 0-31.986 14.321-31.986 31.986s14.321 31.986 31.986 31.986h128.018c17.666 0 31.986-14.321 31.986-31.986s-14.321-31.986-31.986-31.986v0zM607.813 438.93h-127.8c-17.666 0-31.986 14.321-31.986 31.986s14.321 31.986 31.986 31.986h128.018c17.666 0 31.986-14.321 31.986-31.986s-14.321-31.986-31.986-31.986v0z" />
<glyph unicode="&#xe91c;" glyph-name="trainings" d="M136.533 677.79h256c10.24 0 17.067 6.827 17.067 17.067s-6.827 17.067-17.067 17.067h-256c-10.24 0-17.067-6.827-17.067-17.067s6.827-17.067 17.067-17.067zM136.533 728.99h153.6c10.24 0 17.067 6.827 17.067 17.067s-6.827 17.067-17.067 17.067h-153.6c-10.24 0-17.067-6.827-17.067-17.067s6.827-17.067 17.067-17.067zM409.6 643.657c0 10.24-6.827 17.067-17.067 17.067h-256c-10.24 0-17.067-6.827-17.067-17.067s6.827-17.067 17.067-17.067h256c10.24 0 17.067 6.827 17.067 17.067zM1024 882.59h-494.933v51.2c0 10.24-6.827 17.067-17.067 17.067s-17.067-6.827-17.067-17.067v-51.2h-494.933v-716.8h471.040l-209.92-209.92c-6.827-6.827-6.827-17.067 0-23.893 3.413-3.413 8.533-5.12 11.947-5.12 5.12 0 8.533 1.707 11.947 5.12l209.92 209.92v-163.84c0-10.24 6.827-17.067 17.067-17.067s17.067 6.827 17.067 17.067v163.84l209.92-209.92c3.413-3.413 8.533-5.12 11.947-5.12s8.533 1.707 11.947 5.12c6.827 6.827 6.827 17.067 0 23.893l-209.92 209.92h471.040v716.8zM989.867 199.924h-955.733v648.533h955.733v-648.533zM699.733 609.524h78.507l-204.8-204.8-141.653 141.653c-6.827 6.827-17.067 6.827-23.893 0l-215.040-215.040c-6.827-6.827-6.827-17.067 0-23.893 3.413-3.413 8.533-5.12 11.947-5.12s8.533 1.707 11.947 5.12l203.093 203.093 141.653-141.653c3.413-3.413 8.533-5.12 11.947-5.12s8.533 1.707 11.947 5.12l216.747 216.747v-78.507c0-10.24 6.827-17.067 17.067-17.067s17.067 6.827 17.067 17.067v119.467c0 1.707 0 5.12-1.707 6.827-1.707 3.413-5.12 6.827-8.533 8.533-1.707 1.707-5.12 1.707-6.827 1.707h-119.467c-10.24 0-17.067-6.827-17.067-17.067s6.827-17.067 17.067-17.067z" />
<glyph unicode="&#xe91d;" glyph-name="eye" d="M512 832c-282.752 0-512-379.008-512-379.008s229.248-388.992 512-388.992 512 388.992 512 388.992-229.248 379.008-512 379.008zM512 192c-141.376 0-256 114.624-256 256s114.624 256 256 256 256-114.624 256-256-114.624-256-256-256zM384 448c0 70.692 57.308 128 128 128s128-57.308 128-128c0-70.692-57.308-128-128-128s-128 57.308-128 128z" />
<glyph unicode="&#xe91e;" glyph-name="users" d="M554.667 341.334h-341.333c-119.467 0-213.333-93.867-213.333-213.333v-85.333c0-25.6 17.067-42.667 42.667-42.667s42.667 17.067 42.667 42.667v85.333c0 72.533 55.467 128 128 128h341.333c72.533 0 128-55.467 128-128v-85.333c0-25.6 17.067-42.667 42.667-42.667s42.667 17.067 42.667 42.667v85.333c0 119.467-93.867 213.333-213.333 213.333zM384 426.667c119.467 0 213.333 93.867 213.333 213.333s-93.867 213.333-213.333 213.333-213.333-93.867-213.333-213.333 93.867-213.333 213.333-213.333zM384 768c72.533 0 128-55.467 128-128s-55.467-128-128-128-128 55.467-128 128 55.467 128 128 128zM861.867 332.8c-21.333 4.267-46.933-8.533-51.2-29.867s8.533-46.933 29.867-51.2c55.467-12.8 93.867-64 93.867-123.733v-85.333c0-25.6 17.067-42.667 42.667-42.667s42.667 17.067 42.667 42.667v85.333c4.267 98.133-59.733 183.467-157.867 204.8zM691.2 844.8c-21.333 8.533-42.667-4.267-51.2-29.867-4.267-21.333 8.533-46.933 29.867-51.2 68.267-17.067 110.933-85.333 93.867-157.867-12.8-46.933-46.933-81.067-93.867-93.867-21.333-4.267-38.4-29.867-29.867-51.2 4.267-21.333 21.333-34.133 42.667-34.133 4.267 0 8.533 0 8.533 0 76.8 21.333 136.533 76.8 153.6 153.6 29.867 119.467-38.4 238.933-153.6 264.533z" />
<glyph unicode="&#xe91f;" glyph-name="user-plus" d="M512 341.334h-298.667c-119.467 0-213.333-93.867-213.333-213.333v-85.333c0-25.6 17.067-42.667 42.667-42.667s42.667 17.067 42.667 42.667v85.333c0 72.533 55.467 128 128 128h298.667c72.533 0 128-55.467 128-128v-85.333c0-25.6 17.067-42.667 42.667-42.667s42.667 17.067 42.667 42.667v85.333c0 119.467-93.867 213.333-213.333 213.333zM362.667 426.667c119.467 0 213.333 93.867 213.333 213.333s-93.867 213.333-213.333 213.333-213.333-93.867-213.333-213.333 93.867-213.333 213.333-213.333zM362.667 768c72.533 0 128-55.467 128-128s-55.467-128-128-128-128 55.467-128 128 55.467 128 128 128zM981.333 512h-85.333v85.333c0 25.6-17.067 42.667-42.667 42.667s-42.667-17.067-42.667-42.667v-85.333h-85.333c-25.6 0-42.667-17.067-42.667-42.667s17.067-42.667 42.667-42.667h85.333v-85.333c0-25.6 17.067-42.667 42.667-42.667s42.667 17.067 42.667 42.667v85.333h85.333c25.6 0 42.667 17.067 42.667 42.667s-17.067 42.667-42.667 42.667z" />
<glyph unicode="&#xe920;" glyph-name="user" d="M682.667 341.334h-341.333c-119.467 0-213.333-93.867-213.333-213.333v-85.333c0-25.6 17.067-42.667 42.667-42.667s42.667 17.067 42.667 42.667v85.333c0 72.533 55.467 128 128 128h341.333c72.533 0 128-55.467 128-128v-85.333c0-25.6 17.067-42.667 42.667-42.667s42.667 17.067 42.667 42.667v85.333c0 119.467-93.867 213.333-213.333 213.333zM512 426.667c119.467 0 213.333 93.867 213.333 213.333s-93.867 213.333-213.333 213.333-213.333-93.867-213.333-213.333 93.867-213.333 213.333-213.333zM512 768c72.533 0 128-55.467 128-128s-55.467-128-128-128-128 55.467-128 128 55.467 128 128 128z" />
</font>
</defs>
</svg>
